<svg viewBox="0 0 30 30" fill="none" xmlns="http://www.w3.org/2000/svg">
<path d="M7.95069 1.22449C11.3908 -0.0657098 14.2252 4.51127 14.96 7.15654L9.22855 7.15657C6.18718 7.15661 4.42367 2.5473 7.95069 1.22449Z" stroke="#FEAF46" stroke-width="1.5"/>
<path d="M22.0093 1.22449C18.5692 -0.0657096 15.7348 4.51127 15 7.15654L20.7314 7.15657C23.7728 7.15661 25.5363 2.5473 22.0093 1.22449Z" stroke="#FEAF46" stroke-width="1.5"/>
<path fill-rule="evenodd" clip-rule="evenodd" d="M14.1182 16.8999H3.53711V27.4001C3.53711 28.5047 4.43254 29.4001 5.53711 29.4001H14.1182V17.4385V17.4384V16.8999ZM16.1182 29.4001V17.4385V17.4384V16.8999H26.4628V27.4001C26.4628 28.5047 25.5673 29.4001 24.4628 29.4001H16.1182Z" fill="url(#paint0_linear)"/>
<path fill-rule="evenodd" clip-rule="evenodd" d="M14.1333 8.90015V15.6588H16.099V8.90015H26.5C27.0523 8.90015 27.5 9.34786 27.5 9.90015V14.9001C27.5 15.4524 27.0523 15.9001 26.5 15.9001H16.0991V15.6589H14.1334V15.9001H3.5C2.94772 15.9001 2.5 15.4524 2.5 14.9001V9.90015C2.5 9.34786 2.94772 8.90015 3.5 8.90015H14.1333Z" fill="#FEAF46"/>
<defs>
<linearGradient id="paint0_linear" x1="14.9999" y1="16.8999" x2="14.9999" y2="29.4001" gradientUnits="userSpaceOnUse">
<stop stop-color="#FFB545"/>
<stop offset="0.9998" stop-color="#E14D4D"/>
</linearGradient>
</defs>
</svg>
