<svg width="44" height="32" fill="none" xmlns="http://www.w3.org/2000/svg"><g filter="url(#filter0_d)"><path d="M5.478 8.906C7.13 6.47 8.655 5.602 11.261 4.437 20.348.375 32.739 2.4 36.87 6.47c5.596 5.512 4.15 15.98-4.544 19.5-8.693 3.52-21.145 1.529-25.609-2.844-2.879-2.822-3.997-10.149-1.239-14.22z" fill="#D57AA0"/><path d="M26.799 8.942c.595 0 1.131.468 1.131 1.113 0 .585-.476 1.113-1.131 1.113-.596 0-1.072-.47-1.072-1.113-.06-.645.417-1.113 1.072-1.113z" fill="#F3EFEC"/><path d="M30.908 10.347c.12 1.406.239 8.201-.178 9.783-.596 2.05-1.966 3.28-4.05 3.632-.775.117-2.919.175-5.063.175-2.203 0-4.407-.058-5.122-.292-2.084-.528-3.335-1.875-3.692-3.984-.239-1.523-.298-8.67.178-10.192.596-1.992 1.966-3.164 4.05-3.515.953-.176 2.8-.176 4.646-.176 1.727 0 3.454.059 4.526.117 1.251.059 2.442.469 3.395 1.348.774.82 1.191 1.874 1.31 3.104zm-1.727 9.021c.238-1.581.238-7.44.12-8.904-.18-1.581-1.132-2.636-2.74-2.87-.775-.117-2.68-.176-4.586-.176-1.847 0-3.693.059-4.467.117-1.608.176-2.68 1.172-2.978 2.754-.238 1.64-.238 7.908-.06 9.138.179 1.289.953 2.226 2.263 2.577.715.176 2.86.293 4.944.293 1.965 0 3.811-.058 4.526-.117 1.608-.234 2.68-1.171 2.978-2.812z" fill="#F3EFEC"/><path d="M21.855 10.171a4.689 4.689 0 014.706 4.687c0 2.577-2.145 4.627-4.765 4.627A4.689 4.689 0 0117.09 14.8c0-2.519 2.144-4.627 4.764-4.627zm-.06 7.674c1.668 0 3.038-1.347 3.098-2.987 0-1.64-1.31-3.046-2.978-3.046-1.668 0-3.037 1.347-3.097 2.987-.12 1.699 1.25 3.046 2.978 3.046z" fill="#F3EFEC"/></g><defs><filter id="filter0_d" x="0" y="0" width="44" height="32" filterUnits="userSpaceOnUse" color-interpolation-filters="sRGB"><feFlood flood-opacity="0" result="BackgroundImageFix"/><feColorMatrix in="SourceAlpha" values="0 0 0 0 0 0 0 0 0 0 0 0 0 0 0 0 0 0 127 0"/><feOffset dy="1"/><feGaussianBlur stdDeviation="1.5"/><feColorMatrix values="0 0 0 0 0 0 0 0 0 0 0 0 0 0 0 0 0 0 0.25 0"/><feBlend in2="BackgroundImageFix" result="effect1_dropShadow"/><feBlend in="SourceGraphic" in2="effect1_dropShadow" result="shape"/></filter></defs></svg>