<svg width="248" height="66" fill="none" xmlns="http://www.w3.org/2000/svg"><path fill="#2B849D" d="M0 0h248v66H0z"/><path d="M22.821 39.126h9.717v2.51H18.999v-2.038l9.405-13.523h-9.342V23.54h13.176v1.988l-9.417 13.598zm24.106-1.703h-7.044l-1.473 4.213h-3.285l6.87-18.096h2.834l6.882 18.096h-3.297l-1.487-4.213zm-6.157-2.536h5.27l-2.635-7.507-2.635 7.507zm18.386-2.771l4.184-8.576h3.497l-6.095 11.434v6.662H57.57v-6.662L51.463 23.54h3.51l4.183 8.576zm24.469 3.629c-.183 1.93-.9 3.439-2.148 4.524-1.25 1.077-2.91 1.616-4.984 1.616-1.448 0-2.726-.34-3.834-1.02-1.099-.687-1.948-1.66-2.548-2.92-.6-1.26-.911-2.722-.936-4.388v-1.69c0-1.707.304-3.21.911-4.512.608-1.3 1.478-2.303 2.61-3.008 1.141-.704 2.457-1.056 3.947-1.056 2.007 0 3.622.543 4.846 1.628 1.224 1.086 1.936 2.619 2.136 4.599h-3.147c-.15-1.301-.533-2.237-1.15-2.809-.607-.58-1.502-.87-2.685-.87-1.373 0-2.43.501-3.172 1.504-.733.994-1.107 2.457-1.124 4.387v1.604c0 1.955.35 3.447 1.05 4.474.707 1.028 1.74 1.541 3.096 1.541 1.241 0 2.174-.277 2.798-.832.625-.556 1.02-1.48 1.187-2.772h3.147zm14.777-2.188h-7.469v5.569h8.73v2.51h-11.89V23.54h11.803v2.535h-8.643v4.997h7.469v2.485zm11.554 4.139l4.621-14.156h3.472l-6.544 18.096h-3.06l-6.519-18.096h3.459l4.571 14.156zm10.368.758c.567 0 1.004.162 1.312.485.308.315.462.713.462 1.193 0 .473-.154.866-.462 1.181-.308.307-.745.46-1.312.46-.541 0-.97-.153-1.286-.46-.316-.306-.475-.7-.475-1.18 0-.481.154-.879.462-1.194.308-.323.741-.485 1.299-.485zm21.284 3.182h-3.16l-8.105-12.839v12.84h-3.16V23.54h3.16l8.13 12.888V23.54h3.135v18.096zm15.676-8.079h-7.469v5.569h8.731v2.51h-11.89V23.54h11.802v2.535h-8.643v4.997h7.469v2.485zm18.536-7.482h-5.67v15.561h-3.135v-15.56h-5.62V23.54h14.425v2.535z" fill="#fff"/><path fill-rule="evenodd" clip-rule="evenodd" d="M183.346 27.545a3.19 3.19 0 003.197-3.182 3.19 3.19 0 00-3.197-3.182 3.19 3.19 0 00-3.197 3.182 3.19 3.19 0 003.197 3.182zm0 .454A3.645 3.645 0 00187 24.363a3.645 3.645 0 00-3.654-3.636 3.645 3.645 0 00-3.654 3.636 3.645 3.645 0 003.654 3.636z" fill="#fff"/><path d="M183.418 24.71h-.887v1.471h-.5v-3.636h1.249c.425 0 .752.093.98.28.23.186.345.457.345.814a.95.95 0 01-.192.592 1.124 1.124 0 01-.529.377l.887 1.543v.03h-.534l-.819-1.47zm-.887-.392h.765c.247 0 .443-.062.588-.185a.613.613 0 00.221-.494c0-.225-.07-.397-.21-.517-.139-.12-.339-.18-.602-.183h-.762v1.38z" fill="#fff"/></svg>