<svg width="37" height="26" fill="none" xmlns="http://www.w3.org/2000/svg"><path d="M2.815 2.438C6.367.538 17.228.405 20.11.405c9.696 0 13.271 1.219 14.88 4.063 2.607 4.608 2.53 16.954-3.217 19.093-7.642 2.844-24.533 3.657-28.909-2.027C.238 18.127-1.625 4.811 2.815 2.437z" fill="#2FAADE"/><path fill-rule="evenodd" clip-rule="evenodd" d="M27.529 8.191c-.268-.216-1.178-.216-2.141-.216-.964 0-1.873 0-2.14.108-.215.054-.643 1.19-1.232 2.325-.696 1.297-1.498 2.54-2.034 2.54-.695 0-.535-2.108-.481-3.676 0-1.027-.16-1.351-.321-1.46-.375-.27-1.338-.486-1.338-.486s-2.944-.216-3.372 1.081c.589.054 1.552-.108 1.177 3.893-.053.216-.481 1.838-1.82-.379-.374-.54-1.659-3.892-2.14-3.892-1.499-.054-3.05-.108-3.532.216-.482.27.642 2.595 2.622 5.677 1.552 2.54 3.265 4.487 6.155 4.973.535.054 1.98.108 2.408-.108.321-.162-.053-2.325.963-2.54.482-.109 2.248 2.27 2.89 2.54.429.162 1.285.216 2.195.216.963-.054 2.087.109 2.194-.594.268-1.514-2.997-3.46-3.05-4.38-.054-.648 1.177-1.891 1.82-2.81.802-1.19 1.658-2.595 1.177-3.028z" fill="#F3EFEC"/></svg>