<svg width="44" height="31" fill="none" xmlns="http://www.w3.org/2000/svg"><g filter="url(#filter0_d)"><path d="M6.717 4.25c3.869-1.537 5.762-1.864 9.087-2.031 16.109-.813 19.826 1.219 22.718 4.875 4.42 5.59 1.987 17.885-7.435 19.093-9.5 1.22-23.076 1.04-26.435-4.468-1.92-3.15-2.77-15.547 2.065-17.469z" fill="#C1524B"/><path d="M22.512 22.105l-4.745-.084c-1.537-.03-3.077.03-4.583-.273-2.292-.452-2.454-2.667-2.624-4.524a30.627 30.627 0 01.298-7.86c.25-1.454 1.231-2.32 2.749-2.415 5.123-.343 10.28-.302 15.391-.142.54.014 1.084.094 1.616.186 2.628.444 2.692 2.954 2.862 5.066.17 2.135.098 4.28-.226 6.4-.26 1.755-.76 3.227-2.863 3.37-2.635.185-5.21.335-7.852.287 0-.011-.015-.011-.023-.011zm-2.79-4.444c1.986-1.1 3.934-2.182 5.909-3.275-1.99-1.1-3.934-2.181-5.909-3.274v6.549z" fill="#F3EFEC"/></g><defs><filter id="filter0_d" x="0" y="-1" width="44" height="32" filterUnits="userSpaceOnUse" color-interpolation-filters="sRGB"><feFlood flood-opacity="0" result="BackgroundImageFix"/><feColorMatrix in="SourceAlpha" values="0 0 0 0 0 0 0 0 0 0 0 0 0 0 0 0 0 0 127 0"/><feOffset dy="1"/><feGaussianBlur stdDeviation="1.5"/><feColorMatrix values="0 0 0 0 0 0 0 0 0 0 0 0 0 0 0 0 0 0 0.25 0"/><feBlend in2="BackgroundImageFix" result="effect1_dropShadow"/><feBlend in="SourceGraphic" in2="effect1_dropShadow" result="shape"/></filter></defs></svg>